<svg width="124" height="56" viewBox="0 0 124 56" fill="none" xmlns="http://www.w3.org/2000/svg">
<g clip-path="url(#clip0)">
<path d="M82.7637 7.24963C82.7637 19.0119 89.502 30.2562 92.1388 34.177C92.7979 35.1387 93.8233 35.6565 94.922 35.6565H111.914C113.013 35.6565 114.038 35.0647 114.698 34.177C117.334 30.2562 124.073 18.9379 124.073 7.24963H82.7637Z" fill="#6596C6"/>
<path d="M84.377 36.6182C84.3037 36.5442 84.1572 36.3962 84.084 36.3223C84.1572 36.3962 84.2305 36.5442 84.377 36.6182Z" fill="#00275F"/>
<path d="M69.5078 12.0581H73.4629C73.9024 14.4253 74.6348 17.5323 75.8799 21.0832C74.6348 17.6063 73.9024 14.4253 73.4629 12.0581H69.5078Z" fill="#00275F"/>
<path d="M79.9082 46.0132C80.8604 44.3857 81.8125 42.6842 82.6914 40.9828C81.8125 42.6103 80.8604 44.3117 79.9082 46.0132Z" fill="#00275F"/>
<path d="M84.5957 36.9141C84.083 37.9497 83.6436 38.9854 83.1309 40.0211C83.6436 38.9854 84.1563 37.9497 84.5957 36.9141Z" fill="#00275F"/>
<path d="M97.633 15.6829C98.8782 10.6525 99.3176 7.24963 99.3176 7.24963H93.4582C93.092 10.2827 92.506 13.6856 91.6271 17.1624C91.5539 17.3844 91.4806 17.6803 91.4074 17.9022C90.6017 21.0832 89.5763 24.4121 88.3312 27.815C87.8917 28.9986 87.4523 30.1823 86.9396 31.3659C86.8663 31.2919 86.7931 31.2179 86.7199 31.144C86.6466 31.07 86.6466 31.07 86.5734 30.996C85.548 29.3685 84.0099 26.6314 82.545 23.0066C82.4718 22.9326 82.4718 22.7846 82.3985 22.7107C82.1788 22.1928 82.0323 21.675 81.8126 21.1572C80.421 17.3104 79.1759 12.5759 78.6632 7.24963V7.32361H69.5078V12.0581H73.4629C73.9024 14.4253 74.6348 17.5323 75.8799 21.0832C77.4913 25.5957 79.9083 30.7001 83.5704 35.7305C83.7169 35.9524 83.8634 36.1004 84.0099 36.3223C84.0831 36.3963 84.2296 36.5442 84.3029 36.6182C84.3761 36.6922 84.5226 36.8401 84.5958 36.9141C84.0831 37.9498 83.6437 38.9854 83.131 40.0211C82.9845 40.317 82.838 40.6129 82.6915 40.9828C81.8126 42.6842 80.8604 44.3857 79.9083 46.0132H85.3283C86.5001 44.1638 87.672 42.3144 88.6242 40.391C89.7228 38.2457 90.8215 36.0264 91.7004 33.8811C92.8723 31.144 93.8977 28.4068 94.7033 25.8177C94.8498 25.2998 95.0695 24.782 95.216 24.2642C95.3625 23.7463 95.509 23.2285 95.6555 22.7846C96.0949 21.3051 96.5344 19.8256 96.8274 18.494C97.0471 17.6063 97.2668 16.7926 97.4133 16.0528C97.5598 15.9049 97.633 15.7569 97.633 15.6829Z" fill="#00275F"/>
<path d="M80.6416 55.9999C82.6237 55.9999 84.2305 54.377 84.2305 52.3751C84.2305 50.3731 82.6237 48.7502 80.6416 48.7502C78.6595 48.7502 77.0527 50.3731 77.0527 52.3751C77.0527 54.377 78.6595 55.9999 80.6416 55.9999Z" fill="#00275F"/>
<path d="M113.015 55.9999C114.997 55.9999 116.604 54.377 116.604 52.3751C116.604 50.3731 114.997 48.7502 113.015 48.7502C111.033 48.7502 109.426 50.3731 109.426 52.3751C109.426 54.377 111.033 55.9999 113.015 55.9999Z" fill="#00275F"/>
<path d="M13.7696 37.7279C7.76373 37.7279 4.24808 34.6209 4.24808 27.2972V11.9841H0V7.10172H4.24808V0.295905L10.1807 0V7.10172H17.505V11.9102H10.1807V27.1493C10.1807 31.07 11.8653 32.6235 14.795 32.6235C16.0402 32.6235 17.3585 32.4756 18.2374 32.1797L18.6037 36.9881C17.1388 37.5059 15.6007 37.7279 13.7696 37.7279Z" fill="#00275F"/>
<path d="M36.8419 6.43591C38.4532 6.43591 39.9913 6.58387 41.0167 6.87977L40.2111 11.8362C39.3322 11.5403 38.2335 11.3923 37.2814 11.3923C34.3516 11.3923 32.0811 12.0581 30.4698 12.9458V36.9881H24.5371V9.24701C27.5401 7.54556 32.3008 6.43591 36.8419 6.43591Z" fill="#00275F"/>
<path d="M54.9317 37.7279C47.2412 37.7279 43.3594 33.9551 43.3594 28.7767C43.3594 22.6367 48.2666 19.6037 54.9317 19.6037C56.9093 19.6037 59.3263 19.8256 61.1574 20.2695V17.8283C61.1574 13.6856 58.8868 11.4663 54.2725 11.4663C51.4893 11.4663 48.7061 11.9841 46.3623 12.9458L45.2637 8.13737C47.6807 7.1017 51.4161 6.43591 54.9317 6.43591C62.9884 6.43591 67.0168 10.6526 67.0168 18.1242V35.0647C64.5265 36.3963 60.4982 37.7279 54.9317 37.7279ZM61.1574 32.0317V24.2642C59.546 23.8203 57.715 23.5244 55.5909 23.5244C51.9288 23.5244 49.2188 24.856 49.2188 28.4808C49.2188 31.5878 51.4893 33.2153 55.3712 33.2153C58.2277 33.2153 60.0587 32.6235 61.1574 32.0317Z" fill="#00275F"/>
</g>
<defs>
<clipPath id="clip0">
<rect width="124" height="56" fill="white"/>
</clipPath>
</defs>
</svg>
